<?xml version="1.0" encoding="iso-8859-1"?>
<!-- Generator: Adobe Illustrator 19.0.0, SVG Export Plug-In . SVG Version: 6.00 Build 0)  -->
<svg version="1.1" id="Layer_1" xmlns="http://www.w3.org/2000/svg" xmlns:xlink="http://www.w3.org/1999/xlink" x="0px" y="0px"
	 viewBox="0 0 280.028 280.028" style="enable-background:new 0 0 280.028 280.028;" xml:space="preserve">
<g>
	<path style="fill:#2D4552;" d="M262.526,253.775H201.27v26.253h61.256V253.775z"/>
	<g>
		<polygon style="fill:#324D5B;" points="262.526,271.276 201.27,271.276 201.27,280.027 262.526,280.027 		"/>
	</g>
	<path style="fill:#1F2F37;" d="M245.024,253.775v26.253h8.751v-26.253L245.024,253.775L245.024,253.775z M227.522,280.027h8.751
		v-26.253h-8.751V280.027z M210.021,280.027h8.751v-26.253h-8.751V280.027z"/>
	<path style="fill:#BF392C;" d="M26.253,0h227.522c9.626,0,17.502,7.876,17.502,17.502v218.771c0,9.626-7.876,17.502-17.502,17.502
		H26.253c-9.626,0-17.502-7.876-17.502-17.502V17.502C8.751,7.876,16.627,0,26.253,0z"/>
	<path style="fill:#FFFFFF;" d="M253.775,43.754v-8.751c0-5.251-3.5-8.751-8.751-8.751H35.003c-4.375,0-8.751,3.5-8.751,8.751v8.751
		v96.259h227.522L253.775,43.754L253.775,43.754L253.775,43.754z"/>
	<path style="fill:#CCD0D2;" d="M0,236.273h280.027v17.502H0V236.273z"/>
	<path style="fill:#FFFFFF;" d="M26.253,210.021h52.505v-43.754H26.253V210.021z M253.775,166.266H201.27v43.754h52.505
		L253.775,166.266L253.775,166.266z"/>
	<path style="fill:#F5B863;" d="M35.003,201.27h35.003v-26.253H35.003V201.27z M245.024,175.017h-35.003v26.253h35.003
		L245.024,175.017L245.024,175.017z"/>
	<path style="fill:#E4E7E7;" d="M96.259,210.021h87.509v-8.751H96.259V210.021z M96.259,192.519h87.509v-8.751H96.259V192.519z
		 M96.259,166.266v8.751h87.509v-8.751H96.259z"/>
	<path style="fill:#F0F0F0;" d="M26.253,140.014h113.761V26.253H35.003c-4.375,0-8.751,3.5-8.751,8.751v105.01H26.253z"/>
	<rect x="245.024" y="253.775" style="fill:#202D35;" width="8.751" height="26.253"/>
	<rect x="210.021" y="253.775" style="fill:#202D35;" width="8.751" height="26.253"/>
	<rect x="245.024" y="271.276" style="fill:#23343D;" width="8.751" height="8.751"/>
	<rect x="227.522" y="271.276" style="fill:#23343D;" width="8.751" height="8.751"/>
	<rect x="210.021" y="271.276" style="fill:#23343D;" width="8.751" height="8.751"/>
	<path style="fill:#2D4552;" d="M78.758,253.775H17.502v26.253h61.256V253.775z"/>
	<g>
		<polygon style="fill:#324D5B;" points="78.758,271.276 17.502,271.276 17.502,280.027 78.758,280.027 		"/>
	</g>
	<path style="fill:#1F2F37;" d="M61.256,253.775v26.253h8.751v-26.253L61.256,253.775L61.256,253.775z M43.754,280.027h8.751
		v-26.253h-8.751V280.027z M26.253,280.027h8.751v-26.253h-8.751C26.253,253.774,26.253,280.027,26.253,280.027z"/>
	<rect x="61.256" y="253.775" style="fill:#202D35;" width="8.751" height="26.253"/>
	<rect x="26.253" y="253.775" style="fill:#202D35;" width="8.751" height="26.253"/>
	<rect x="61.256" y="271.276" style="fill:#23343D;" width="8.751" height="8.751"/>
	<rect x="43.754" y="271.276" style="fill:#23343D;" width="8.751" height="8.751"/>
	<rect x="26.253" y="271.276" style="fill:#23343D;" width="8.751" height="8.751"/>
</g>
<g>
</g>
<g>
</g>
<g>
</g>
<g>
</g>
<g>
</g>
<g>
</g>
<g>
</g>
<g>
</g>
<g>
</g>
<g>
</g>
<g>
</g>
<g>
</g>
<g>
</g>
<g>
</g>
<g>
</g>
</svg>
